<svg id="Logo_4_copia" data-name="Logo 4 copia" xmlns="http://www.w3.org/2000/svg" xmlns:xlink="http://www.w3.org/1999/xlink" viewBox="0 0 473.69 308.73"><defs><style>.cls-1{fill:url(#Nueva_muestra_de_degradado_1);}.cls-2{fill:url(#Nueva_muestra_de_degradado_1-2);}.cls-3{fill:url(#Nueva_muestra_de_degradado_1-3);}.cls-4{fill:url(#Degradado_sin_nombre_111);}</style><linearGradient id="Nueva_muestra_de_degradado_1" x1="74.25" y1="156.18" x2="252.47" y2="105.96" gradientUnits="userSpaceOnUse"><stop offset="0.07" stop-color="#f9faf8"/><stop offset="0.12" stop-color="#d8eacb"/><stop offset="0.21" stop-color="#a8d388"/><stop offset="0.28" stop-color="#85c157"/><stop offset="0.33" stop-color="#6fb739"/><stop offset="0.36" stop-color="#67b32e"/><stop offset="0.5" stop-color="#4a8e2f"/><stop offset="0.61" stop-color="#387730"/><stop offset="0.68" stop-color="#316e30"/><stop offset="0.77" stop-color="#22682f"/><stop offset="0.88" stop-color="#16632d"/><stop offset="1" stop-color="#12612d"/></linearGradient><linearGradient id="Nueva_muestra_de_degradado_1-2" x1="137.03" y1="144.78" x2="319.69" y2="84.34" xlink:href="#Nueva_muestra_de_degradado_1"/><linearGradient id="Nueva_muestra_de_degradado_1-3" x1="263.08" y1="171.46" x2="328.41" y2="97.69" xlink:href="#Nueva_muestra_de_degradado_1"/><linearGradient id="Degradado_sin_nombre_111" x1="269.53" y1="330" x2="269.53" y2="198.36" gradientUnits="userSpaceOnUse"><stop offset="0" stop-color="#fff"/><stop offset="0" stop-color="#ef781a"/><stop offset="0" stop-color="#ed771a"/><stop offset="0" stop-color="#e6741a"/><stop offset="0" stop-color="#db6e19"/><stop offset="0" stop-color="#ca6619"/><stop offset="0" stop-color="#b45b18"/><stop offset="0" stop-color="#984d17"/><stop offset="0" stop-color="#783e15"/><stop offset="0" stop-color="#542c14"/><stop offset="0" stop-color="#3e2113"/><stop offset="0.29" stop-color="#a4551a"/><stop offset="0.51" stop-color="#ef7b20"/><stop offset="0.62" stop-color="#f07f25"/><stop offset="0.75" stop-color="#f18933"/><stop offset="0.89" stop-color="#f49a4b"/><stop offset="1" stop-color="#f7ab63"/></linearGradient></defs><path class="cls-1" d="M116.68,193.6l55.06,22.17a36.62,36.62,0,0,0,5.62,1.76c11.18,2.49,49.32,7.06,13.92-86-18-47.3-46.3-90-46.3-90S172.33,112,165,157.16C161.06,181.24,136.22,198,116.68,193.6Z" transform="translate(-14.79 -5.44)"/><path class="cls-2" d="M191.51,235.06s118.43,19.51,113.54-20C298.5,162.08,133.55,5.44,133.55,5.44S271.92,210.67,191.51,235.06Z" transform="translate(-14.79 -5.44)"/><path class="cls-3" d="M414.69,187c2,28.21-50.37,55.11-84.14,19.85C314.06,189.66,220.29,78,195.73,49.54,191.18,44.26,381,206.8,414.69,187Z" transform="translate(-14.79 -5.44)"/><path class="cls-4" d="M14.79,238.69a91.13,91.13,0,0,1,16.74-1.57c11.31,0,19.36,3.24,24.7,9.38s8.59,14.85,8.59,27-3.07,22.33-8.77,29.25-15.11,10.83-27,10.83a102.9,102.9,0,0,1-14.29-.89Zm7.87,66.55a40.1,40.1,0,0,0,8,.56c16.83,0,26-11.62,26-31.94.09-17.75-8.05-29-24.7-29a36.52,36.52,0,0,0-9.23,1Z" transform="translate(-14.79 -5.44)"/><path class="cls-4" d="M80.75,287.71c.18,13.29,7.06,18.76,15,18.76a24.15,24.15,0,0,0,12.12-2.79l1.36,7a29.79,29.79,0,0,1-14.57,3.35c-13.48,0-21.53-10.94-21.53-27.25s7.78-29.14,20.54-29.14c14.29,0,18.09,15.52,18.09,25.46,0,2-.18,3.57-.27,4.58Zm23.34-7c.09-6.25-2.08-16-11-16-8.06,0-11.59,9.16-12.22,16Z" transform="translate(-14.79 -5.44)"/><path class="cls-4" d="M121.74,302.89a18.16,18.16,0,0,0,10.49,3.91c5.8,0,8.51-3.57,8.51-8,0-4.69-2.26-7.26-8.14-9.94C124.72,285.36,121,280,121,273.53c0-8.71,5.7-15.86,15.12-15.86A18.69,18.69,0,0,1,146.89,261l-2,7.15a14.8,14.8,0,0,0-9-3.13c-4.7,0-7.32,3.35-7.32,7.37,0,4.47,2.62,6.48,8.32,9.16,7.6,3.57,11.49,8.26,11.49,16.3,0,9.49-6,16.19-16.38,16.19a21.25,21.25,0,0,1-12.3-3.69Z" transform="translate(-14.79 -5.44)"/><path class="cls-4" d="M164.27,287.71c.18,13.29,7,18.76,15,18.76a24.15,24.15,0,0,0,12.12-2.79l1.36,7a29.82,29.82,0,0,1-14.57,3.35c-13.48,0-21.53-10.94-21.53-27.25s7.78-29.14,20.54-29.14c14.29,0,18.09,15.52,18.09,25.46,0,2-.18,3.57-.27,4.58Zm23.34-7c.09-6.25-2.08-16-11-16-8,0-11.58,9.16-12.21,16Z" transform="translate(-14.79 -5.44)"/><path class="cls-4" d="M206.34,275.76c0-6.37-.09-11.84-.36-16.86h7l.27,10.61h.36c2-7.26,6.79-11.84,12.12-11.84A7.23,7.23,0,0,1,228,258v9.27a10,10,0,0,0-2.72-.33c-5.61,0-9.59,5.25-10.67,12.62a32.39,32.39,0,0,0-.37,4.57v28.81h-7.87Z" transform="translate(-14.79 -5.44)"/><path class="cls-4" d="M248.87,243.38V258.9h11.4v7.48h-11.4v29.14c0,6.7,1.54,10.5,6,10.5a14.36,14.36,0,0,0,4.61-.67l.37,7.37a16.24,16.24,0,0,1-7.06,1.34,10.07,10.07,0,0,1-8.6-4.13c-2.26-2.9-3.07-7.71-3.07-14.07V266.38H234.3V258.9h6.79V246Z" transform="translate(-14.79 -5.44)"/><path class="cls-4" d="M337.45,309.59a47.35,47.35,0,0,1-18.73,4.13c-9.23,0-16.83-2.9-22.8-9.93-5.25-6.26-8.51-16.31-8.51-28,.09-22.45,12.58-38.86,33-38.86,7.06,0,12.58,1.9,15.2,3.46l-1.9,7.93a26.54,26.54,0,0,0-13.48-3.24c-14.84,0-24.52,11.39-24.52,30.26,0,19.1,9.32,30.38,23.52,30.38,5.16,0,8.69-.9,10.5-2V281.23h-12.4v-7.82h20.09Z" transform="translate(-14.79 -5.44)"/><path class="cls-4" d="M350.75,275.76c0-6.37-.09-11.84-.36-16.86h7l.27,10.61H358c2-7.26,6.79-11.84,12.13-11.84a7.21,7.21,0,0,1,2.26.33v9.27a10,10,0,0,0-2.72-.33c-5.61,0-9.59,5.25-10.67,12.62a34,34,0,0,0-.37,4.57v28.81h-7.87Z" transform="translate(-14.79 -5.44)"/><path class="cls-4" d="M405.32,312.94l-.64-6.81h-.27a15.56,15.56,0,0,1-13.39,8c-8.87,0-13.39-7.7-13.39-15.52,0-13.06,9.41-20.21,26.33-20.1v-1.12c0-4.46-1-12.5-9.95-12.5a18.89,18.89,0,0,0-11.41,4l-1.8-6.48a23.42,23.42,0,0,1,14.38-4.8c13.39,0,16.65,11.28,16.65,22.11V300a92.36,92.36,0,0,0,.73,12.95Zm-1.18-27.58c-8.69-.22-18.55,1.68-18.55,12.17,0,6.37,3.44,9.38,7.51,9.38,5.7,0,9.32-4.46,10.59-9a12.52,12.52,0,0,0,.45-3.13Z" transform="translate(-14.79 -5.44)"/><path class="cls-4" d="M424.77,302.89a18.17,18.17,0,0,0,10.5,3.91c5.79,0,8.5-3.57,8.5-8,0-4.69-2.26-7.26-8.14-9.94-7.87-3.46-11.58-8.82-11.58-15.29,0-8.71,5.7-15.86,15.11-15.86A18.69,18.69,0,0,1,449.92,261l-2,7.15A14.77,14.77,0,0,0,439,265c-4.71,0-7.33,3.35-7.33,7.37,0,4.47,2.62,6.48,8.32,9.16,7.6,3.57,11.49,8.26,11.49,16.3,0,9.49-6,16.19-16.37,16.19a21.28,21.28,0,0,1-12.31-3.69Z" transform="translate(-14.79 -5.44)"/><path class="cls-4" d="M461.78,302.89a18.16,18.16,0,0,0,10.49,3.91c5.8,0,8.51-3.57,8.51-8,0-4.69-2.26-7.26-8.14-9.94-7.88-3.46-11.58-8.82-11.58-15.29,0-8.71,5.7-15.86,15.11-15.86A18.69,18.69,0,0,1,486.93,261l-2,7.15a14.8,14.8,0,0,0-9-3.13c-4.7,0-7.32,3.35-7.32,7.37,0,4.47,2.62,6.48,8.32,9.16,7.6,3.57,11.49,8.26,11.49,16.3,0,9.49-6,16.19-16.38,16.19a21.25,21.25,0,0,1-12.3-3.69Z" transform="translate(-14.79 -5.44)"/></svg>